<svg xmlns="http://www.w3.org/2000/svg" viewBox="0 0 64 64"><defs><style>.cls-1{isolation:isolate;}.cls-2,.cls-7{fill:#fff;}.cls-3{fill:#60bcd2;}.cls-4,.cls-5{fill:none;stroke:#111c47;stroke-width:2px;}.cls-4{stroke-linecap:round;stroke-linejoin:round;}.cls-5{stroke-miterlimit:10;}.cls-6{mix-blend-mode:soft-light;}.cls-7{opacity:0.58;}</style></defs><title>Icon Color</title><g class="cls-1"><g id="Layer_1" data-name="Layer 1"><g id="Vector"><path class="cls-2" d="M33.77,37.65,31.7,50.23H26.9a1.78,1.78,0,0,1-1.76-2.07L27,37.05h.69A31.51,31.51,0,0,1,33.77,37.65Z"/><rect class="cls-2" x="13.28" y="18.19" width="9" height="20.57" rx="3"/><path class="cls-3" d="M43.49,16.53V40.42l-6.69-2q-1.5-.45-3-.75a31.51,31.51,0,0,0-6.12-.6H22.28V19.9h5.37a31.35,31.35,0,0,0,9.15-1.36Z"/><path class="cls-2" d="M46.83,13.77h3.89a0,0,0,0,1,0,0V43.18a0,0,0,0,1,0,0H46.83a3.34,3.34,0,0,1-3.34-3.34V17.11a3.34,3.34,0,0,1,3.34-3.34Z"/></g><g id="Line"><path class="cls-4" d="M33.77,37.65,31.7,50.23H26.9a1.78,1.78,0,0,1-1.76-2.07L27,37.05h.69A31.51,31.51,0,0,1,33.77,37.65Z"/><rect class="cls-4" x="13.28" y="18.19" width="9" height="20.57" rx="3"/><path class="cls-5" d="M43.49,16.53V40.42l-6.69-2q-1.5-.45-3-.75a31.51,31.51,0,0,0-6.12-.6H22.28V19.9h5.37a31.35,31.35,0,0,0,9.15-1.36Z"/><path class="cls-4" d="M46.83,13.77h3.89a0,0,0,0,1,0,0V43.18a0,0,0,0,1,0,0H46.83a3.34,3.34,0,0,1-3.34-3.34V17.11a3.34,3.34,0,0,1,3.34-3.34Z"/><line class="cls-4" x1="37.67" y1="18.28" x2="37.67" y2="22.64"/><line class="cls-4" x1="37.67" y1="26.66" x2="37.67" y2="28.47"/><line class="cls-4" x1="17.78" y1="21.73" x2="17.78" y2="26.23"/></g><g id="Highligth" class="cls-6"><path class="cls-7" d="M26.55,37.05h.31V19.9h-.3a3.09,3.09,0,0,1,.3,1.29V35.76A3,3,0,0,1,26.55,37.05Z"/><path class="cls-7" d="M27.65,19.9h4.58a31.35,31.35,0,0,0,9.15-1.36l2.11-.63V16.53l-6.69,2A31.35,31.35,0,0,1,27.65,19.9Z"/></g></g></g></svg>